<?xml version="1.0" encoding="UTF-8"?>
<svg id="Layer_1" data-name="Layer 1" xmlns="http://www.w3.org/2000/svg" viewBox="0 0 1980 1080">
  <defs>
    <style>
      .cls-1 {
        fill: #0245b9;
      }

      .cls-2 {
        fill: #f1f2f2;
      }
    </style>
  </defs>
  <rect width="1980" height="1080"/>
  <g>
    <g>
      <g>
        <path class="cls-2" d="M861.39,481.18c-19.87-3.56-23.22-6.44-23.22-11.54,0-7.85,9.36-9.5,17.2-9.5,15.91,0,19.69,5.75,21.3,11.37l.26,.9h28.05l-.13-1.37c-.74-7.54-6.42-32.12-48.66-32.12-28.34,0-46.65,13.03-46.65,33.21,0,13.53,5.39,26.97,44.48,33.66,22.12,3.75,26.16,7.65,26.16,13.98,0,4.56-2.07,10.61-19.98,10.61-15.22,0-23.46-4.41-26.75-14.3l-.28-.85h-28.13l.24,1.45c5.11,30.37,35.09,34.9,52.5,34.9,46.19,0,51.18-24.09,51.18-34.44,0-16.93-7.96-28.85-47.57-35.96"/>
        <path class="cls-2" d="M1150.2,550.79h-31.81l-8.27-24.96h-40.61l-8.45,24.96h-31.09l41.69-110.56h37.02l41.51,110.56Zm-74.94-44.56h29.11l-14.56-44.73-14.56,44.73Z"/>
        <polygon class="cls-2" points="1194.94 528.51 1254.42 528.51 1254.42 550.79 1164.03 550.79 1164.03 440.23 1194.94 440.23 1194.94 528.51"/>
        <polygon class="cls-2" points="1268.86 550.79 1268.86 440.23 1361.23 440.23 1361.23 462.51 1299.77 462.51 1299.77 484.96 1357.26 484.96 1357.26 505.9 1299.77 505.9 1299.77 528.51 1361.06 528.51 1361.06 550.79 1268.86 550.79"/>
        <path class="cls-2" d="M1483.91,550.79l-30.9-44.64c4.69-1.46,8.76-3.5,12.21-6.12,7.79-5.92,11.68-14.52,11.68-25.8,0-10.27-3.93-18.51-11.77-24.71-7.85-6.2-18.84-9.3-32.97-9.3h-56.61v110.56h30.37v-40.37h18.52l25.33,40.37h34.14Zm-77.99-88.78h21.92c5.99,0,10.48,1.12,13.48,3.35,2.99,2.24,4.49,5.75,4.49,10.55s-1.5,8.49-4.49,10.72c-3,2.24-7.49,3.35-13.48,3.35h-21.92v-27.98Z"/>
        <path class="cls-2" d="M974.31,526.92c-16.76,0-29.57-12.69-29.57-31.17s12.82-31.17,29.57-31.17c11.39,0,20.35,4.86,24.76,15.62l24.85-8.42c-8.01-23.33-28.95-31.23-49.61-31.23-33.88,0-57.17,22.42-57.17,55.2s23.29,55.2,57.17,55.2c26.76,0,47.69-12.94,52.24-45.1h-26.49c-3.94,12.82-13.43,21.07-25.75,21.07"/>
      </g>
      <g>
        <path class="cls-2" d="M829.48,589.51c-2.26-.67-4.34-1-6.23-1-2.63,0-4.73,.51-6.3,1.52-1.57,1.01-2.36,2.4-2.36,4.17,0,1.59,.47,2.9,1.42,3.91,.95,1.01,2.11,1.81,3.49,2.39,1.38,.58,3.29,1.26,5.75,2.04,3.06,.95,5.53,1.85,7.43,2.71,1.89,.86,3.51,2.14,4.84,3.84s2,3.95,2,6.75c0,2.58-.7,4.84-2.1,6.78-1.4,1.94-3.36,3.43-5.88,4.49-2.52,1.05-5.42,1.58-8.69,1.58s-6.55-.65-9.69-1.94-5.86-3.01-8.14-5.17l2.78-5.36c2.15,2.11,4.57,3.74,7.27,4.88,2.69,1.14,5.31,1.71,7.85,1.71,3.01,0,5.39-.59,7.14-1.78,1.74-1.18,2.62-2.79,2.62-4.81,0-1.59-.47-2.91-1.42-3.94-.95-1.03-2.14-1.85-3.59-2.46-1.44-.6-3.39-1.27-5.84-2-3.01-.9-5.47-1.79-7.36-2.65-1.9-.86-3.5-2.13-4.81-3.81-1.31-1.68-1.97-3.9-1.97-6.65,0-2.41,.67-4.54,2-6.39s3.21-3.27,5.62-4.26c2.41-.99,5.21-1.49,8.4-1.49,2.71,0,5.37,.4,7.98,1.19,2.6,.8,4.92,1.86,6.94,3.2l-2.58,5.55c-2.11-1.33-4.3-2.34-6.56-3Z"/>
        <path class="cls-2" d="M863.03,599.29c-2.24,0-4.23,.5-5.97,1.49-1.74,.99-3.11,2.39-4.1,4.2-.99,1.81-1.49,3.9-1.49,6.27s.48,4.45,1.45,6.26c.97,1.81,2.3,3.22,4,4.23,1.7,1.01,3.65,1.52,5.84,1.52s4.18-.37,5.94-1.1c1.76-.73,3.23-1.79,4.39-3.16l3.42,3.49c-1.55,1.94-3.52,3.42-5.91,4.46-2.39,1.03-5.09,1.55-8.11,1.55-3.32,0-6.26-.73-8.85-2.2-2.58-1.46-4.6-3.5-6.04-6.1-1.44-2.6-2.16-5.59-2.16-8.94s.72-6.35,2.16-8.98c1.44-2.63,3.45-4.67,6.04-6.14,2.58-1.46,5.53-2.2,8.85-2.2,2.88,0,5.48,.44,7.78,1.32,2.3,.88,4.23,2.16,5.78,3.84l-3.29,4.13c-2.71-2.63-5.96-3.94-9.75-3.94Z"/>
        <path class="cls-2" d="M913.92,597.45c2.28,2.35,3.42,5.59,3.42,9.72v21.12h-6.01v-19.5c0-2.88-.81-5.13-2.42-6.75-1.61-1.61-3.84-2.42-6.68-2.42-3.32,.04-5.94,1.16-7.88,3.36-1.94,2.19-2.91,5.04-2.91,8.52v16.79h-6.01v-47.92h6.01v21.12c2.28-4.95,6.63-7.47,13.05-7.56,4,0,7.15,1.17,9.43,3.52Z"/>
        <path class="cls-2" d="M951.35,596.13c2.65,1.46,4.72,3.5,6.2,6.1,1.49,2.61,2.23,5.59,2.23,8.95s-.74,6.35-2.23,8.98c-1.49,2.63-3.55,4.67-6.2,6.14-2.65,1.47-5.67,2.2-9.07,2.2s-6.49-.73-9.14-2.2c-2.65-1.46-4.71-3.5-6.2-6.1-1.49-2.6-2.23-5.61-2.23-9.01s.74-6.34,2.23-8.95c1.49-2.6,3.55-4.64,6.2-6.1,2.65-1.46,5.69-2.2,9.14-2.2s6.43,.73,9.07,2.2Zm-15.05,4.58c-1.74,1.03-3.1,2.47-4.07,4.3-.97,1.83-1.45,3.91-1.45,6.23s.48,4.48,1.45,6.33c.97,1.85,2.32,3.28,4.07,4.29,1.74,1.01,3.74,1.52,5.97,1.52s4.17-.5,5.91-1.52c1.74-1.01,3.1-2.44,4.07-4.29,.97-1.85,1.45-3.96,1.45-6.33s-.48-4.4-1.45-6.23c-.97-1.83-2.32-3.26-4.07-4.3s-3.71-1.55-5.91-1.55-4.23,.52-5.97,1.55Z"/>
        <path class="cls-2" d="M991.45,596.13c2.65,1.46,4.72,3.5,6.2,6.1,1.49,2.61,2.23,5.59,2.23,8.95s-.74,6.35-2.23,8.98c-1.49,2.63-3.55,4.67-6.2,6.14-2.65,1.47-5.67,2.2-9.07,2.2s-6.49-.73-9.14-2.2c-2.65-1.46-4.71-3.5-6.2-6.1-1.49-2.6-2.23-5.61-2.23-9.01s.74-6.34,2.23-8.95c1.49-2.6,3.55-4.64,6.2-6.1,2.65-1.46,5.69-2.2,9.14-2.2s6.43,.73,9.07,2.2Zm-15.05,4.58c-1.74,1.03-3.1,2.47-4.07,4.3-.97,1.83-1.45,3.91-1.45,6.23s.48,4.48,1.45,6.33c.97,1.85,2.32,3.28,4.07,4.29,1.74,1.01,3.74,1.52,5.97,1.52s4.17-.5,5.91-1.52c1.74-1.01,3.1-2.44,4.07-4.29,.97-1.85,1.45-3.96,1.45-6.33s-.48-4.4-1.45-6.23c-.97-1.83-2.32-3.26-4.07-4.3s-3.71-1.55-5.91-1.55-4.23,.52-5.97,1.55Z"/>
        <path class="cls-2" d="M1008.6,580.37h6.01v47.92h-6.01v-47.92Z"/>
        <path class="cls-2" d="M1066.88,596.13c2.65,1.46,4.72,3.5,6.2,6.1,1.49,2.61,2.23,5.59,2.23,8.95s-.74,6.35-2.23,8.98c-1.49,2.63-3.55,4.67-6.2,6.14-2.65,1.47-5.67,2.2-9.07,2.2s-6.49-.73-9.14-2.2c-2.65-1.46-4.71-3.5-6.2-6.1-1.49-2.6-2.23-5.61-2.23-9.01s.74-6.34,2.23-8.95c1.49-2.6,3.55-4.64,6.2-6.1,2.65-1.46,5.69-2.2,9.14-2.2s6.43,.73,9.07,2.2Zm-15.05,4.58c-1.74,1.03-3.1,2.47-4.07,4.3-.97,1.83-1.45,3.91-1.45,6.23s.48,4.48,1.45,6.33c.97,1.85,2.32,3.28,4.07,4.29,1.74,1.01,3.74,1.52,5.97,1.52s4.17-.5,5.91-1.52c1.74-1.01,3.1-2.44,4.07-4.29s1.45-3.96,1.45-6.33-.48-4.4-1.45-6.23c-.97-1.83-2.32-3.26-4.07-4.3-1.74-1.03-3.71-1.55-5.91-1.55s-4.23,.52-5.97,1.55Z"/>
        <path class="cls-2" d="M1091.91,586.76c-1.03,.95-1.55,2.3-1.55,4.07v4.46h9.43v4.58h-9.43v28.42h-6.01v-28.42h-4.46v-4.58h4.46v-3.68c0-2.5,.53-4.62,1.58-6.36,1.05-1.74,2.44-3.06,4.17-3.94,1.72-.88,3.57-1.32,5.55-1.32s3.88,.52,5.94,1.55l-1.42,4.91c-1.55-.73-3.01-1.1-4.39-1.1-1.55,0-2.84,.47-3.88,1.42Z"/>
        <path class="cls-2" d="M1116.97,583.08h35.33v5.68h-14.6v39.52h-6.2v-39.52h-14.53v-5.68Z"/>
        <path class="cls-2" d="M1184.52,598.62c2.71,3.12,4.07,7.46,4.07,13.01,0,.86-.02,1.51-.07,1.94h-27c.47,3.06,1.76,5.49,3.84,7.3,2.09,1.81,4.66,2.71,7.72,2.71,2.02,0,3.91-.37,5.65-1.1,1.74-.73,3.26-1.76,4.55-3.1l3.29,3.42c-1.68,1.81-3.7,3.21-6.07,4.2-2.37,.99-5,1.49-7.88,1.49-3.36,0-6.34-.72-8.95-2.16-2.61-1.44-4.63-3.48-6.07-6.1-1.44-2.63-2.16-5.62-2.16-8.98s.72-6.34,2.16-8.95c1.44-2.61,3.46-4.65,6.04-6.14,2.58-1.49,5.53-2.23,8.85-2.23,5.3,0,9.3,1.56,12.01,4.68Zm-1.36,10.3c-.17-3.1-1.21-5.54-3.1-7.33-1.9-1.79-4.39-2.68-7.49-2.68s-5.52,.9-7.52,2.71c-2,1.81-3.2,4.24-3.58,7.3h21.7Z"/>
        <path class="cls-2" d="M1211,599.29c-2.24,0-4.23,.5-5.97,1.49-1.74,.99-3.11,2.39-4.1,4.2-.99,1.81-1.49,3.9-1.49,6.27s.48,4.45,1.45,6.26c.97,1.81,2.3,3.22,4,4.23,1.7,1.01,3.65,1.52,5.84,1.52s4.18-.37,5.94-1.1c1.77-.73,3.23-1.79,4.39-3.16l3.42,3.49c-1.55,1.94-3.52,3.42-5.91,4.46-2.39,1.03-5.09,1.55-8.1,1.55-3.32,0-6.27-.73-8.85-2.2-2.58-1.46-4.6-3.5-6.04-6.1-1.44-2.6-2.16-5.59-2.16-8.94s.72-6.35,2.16-8.98c1.44-2.63,3.46-4.67,6.04-6.14,2.58-1.46,5.53-2.2,8.85-2.2,2.88,0,5.48,.44,7.78,1.32,2.3,.88,4.23,2.16,5.78,3.84l-3.29,4.13c-2.71-2.63-5.96-3.94-9.75-3.94Z"/>
        <path class="cls-2" d="M1261.89,597.45c2.28,2.35,3.42,5.59,3.42,9.72v21.12h-6.01v-19.5c0-2.88-.81-5.13-2.42-6.75-1.62-1.61-3.84-2.42-6.69-2.42-3.31,.04-5.94,1.16-7.88,3.36-1.94,2.19-2.91,5.04-2.91,8.52v16.79h-6.01v-47.92h6.01v21.12c2.28-4.95,6.63-7.47,13.05-7.56,4,0,7.15,1.17,9.43,3.52Z"/>
        <path class="cls-2" d="M1304.45,597.45c2.28,2.35,3.42,5.59,3.42,9.72v21.12h-6.01v-19.5c0-2.88-.81-5.13-2.42-6.75-1.62-1.61-3.84-2.42-6.69-2.42-3.06,.04-5.54,1.02-7.46,2.94s-3,4.4-3.26,7.46v18.28h-6.01v-34.17h6.01v7.23c2.28-4.87,6.61-7.34,12.98-7.43,4,0,7.14,1.17,9.43,3.52Z"/>
        <path class="cls-2" d="M1341.88,596.13c2.65,1.46,4.72,3.5,6.2,6.1,1.49,2.61,2.23,5.59,2.23,8.95s-.74,6.35-2.23,8.98c-1.49,2.63-3.55,4.67-6.2,6.14-2.65,1.47-5.67,2.2-9.07,2.2s-6.49-.73-9.14-2.2c-2.65-1.46-4.71-3.5-6.2-6.1-1.49-2.6-2.23-5.61-2.23-9.01s.74-6.34,2.23-8.95c1.49-2.6,3.55-4.64,6.2-6.1,2.65-1.46,5.69-2.2,9.14-2.2s6.43,.73,9.07,2.2Zm-15.05,4.58c-1.74,1.03-3.1,2.47-4.07,4.3-.97,1.83-1.45,3.91-1.45,6.23s.48,4.48,1.45,6.33c.97,1.85,2.32,3.28,4.07,4.29,1.74,1.01,3.74,1.52,5.97,1.52s4.17-.5,5.91-1.52c1.74-1.01,3.1-2.44,4.07-4.29s1.45-3.96,1.45-6.33-.48-4.4-1.45-6.23c-.97-1.83-2.32-3.26-4.07-4.3s-3.71-1.55-5.91-1.55-4.23,.52-5.97,1.55Z"/>
        <path class="cls-2" d="M1359.02,580.37h6.01v47.92h-6.01v-47.92Z"/>
        <path class="cls-2" d="M1400.39,596.13c2.65,1.46,4.72,3.5,6.2,6.1,1.49,2.61,2.23,5.59,2.23,8.95s-.74,6.35-2.23,8.98c-1.49,2.63-3.55,4.67-6.2,6.14-2.65,1.47-5.67,2.2-9.07,2.2s-6.49-.73-9.14-2.2c-2.65-1.46-4.71-3.5-6.2-6.1-1.49-2.6-2.23-5.61-2.23-9.01s.74-6.34,2.23-8.95c1.49-2.6,3.55-4.64,6.2-6.1,2.65-1.46,5.69-2.2,9.14-2.2s6.43,.73,9.07,2.2Zm-15.05,4.58c-1.74,1.03-3.1,2.47-4.07,4.3-.97,1.83-1.45,3.91-1.45,6.23s.48,4.48,1.45,6.33c.97,1.85,2.32,3.28,4.07,4.29,1.74,1.01,3.74,1.52,5.97,1.52s4.17-.5,5.91-1.52c1.74-1.01,3.1-2.44,4.07-4.29s1.45-3.96,1.45-6.33-.48-4.4-1.45-6.23c-.97-1.83-2.32-3.26-4.07-4.3s-3.71-1.55-5.91-1.55-4.23,.52-5.97,1.55Z"/>
        <path class="cls-2" d="M1447.44,594.13v30.68c0,3.27-.72,6.14-2.16,8.59-1.44,2.45-3.48,4.34-6.1,5.65-2.63,1.31-5.68,1.97-9.17,1.97-5.04,0-9.73-1.59-14.08-4.78l2.65-4.39c1.68,1.38,3.42,2.4,5.23,3.07,1.81,.67,3.79,1,5.94,1,3.53,0,6.35-.99,8.46-2.97,2.11-1.98,3.16-4.63,3.16-7.94v-4.78c-1.21,2.07-2.84,3.67-4.91,4.81-2.07,1.14-4.43,1.71-7.1,1.71-3.06,0-5.76-.7-8.11-2.1-2.35-1.4-4.17-3.35-5.46-5.84-1.29-2.5-1.94-5.36-1.94-8.59s.65-6.01,1.94-8.46c1.29-2.45,3.11-4.37,5.46-5.75,2.35-1.38,5.05-2.07,8.11-2.07,2.71,0,5.09,.56,7.14,1.68,2.04,1.12,3.67,2.71,4.88,4.78v-6.27h6.07Zm-11.3,26.29c1.64-.99,2.92-2.36,3.84-4.1,.92-1.74,1.39-3.71,1.39-5.91s-.46-4.23-1.39-5.97c-.93-1.74-2.21-3.11-3.84-4.1-1.64-.99-3.51-1.49-5.62-1.49s-3.99,.5-5.65,1.49c-1.66,.99-2.96,2.36-3.91,4.1-.95,1.74-1.42,3.73-1.42,5.97,.04,3.36,1.08,6.12,3.1,8.27,2.02,2.15,4.65,3.23,7.88,3.23,2.11,0,3.98-.49,5.62-1.49Z"/>
        <path class="cls-2" d="M1466.07,639.08c-1.79,1.33-3.89,2-6.3,2-1.46,0-2.8-.22-4-.65-1.21-.43-2.37-1.1-3.49-2l2.58-4.72c1.51,1.08,3.04,1.62,4.58,1.62,2.58,0,4.52-1.47,5.81-4.39l1.29-3.03-14.14-33.78h6.33l10.85,27.38,10.27-27.38h6.14l-15.63,39.01c-1.08,2.63-2.51,4.61-4.3,5.94Z"/>
      </g>
    </g>
    <g>
      <path class="cls-2" d="M611.13,681.93c-1.15-.51-28.47-12.74-56.04-32.96-40.53-29.72-61.08-61.24-61.08-93.67v-161.31h252.58v161.31c0,32.44-20.55,63.95-61.08,93.67-27.57,20.22-54.89,32.45-56.04,32.96l-9.17,4.07-9.16-4.07Zm9.17-3.19l6.47-2.88c1.12-.5,27.81-12.45,54.81-32.25,38.73-28.4,58.37-58.12,58.37-88.32v-154.67h-239.31v154.67c0,30.2,19.64,59.92,58.37,88.32,27,19.8,53.69,31.75,54.81,32.25l6.47,2.88Zm-103.72-262.18v138.74c0,59.91,103.72,106.01,103.72,106.01,0,0,103.72-46.1,103.72-106.01v-138.74h-207.45Z"/>
      <path class="cls-1" d="M611.58,443.11l-62.02,62.02v85.89h85.89l62.02-62.02v-85.89h-85.89Zm-1.89,122.14h-34.36v-34.36h34.36v34.36Zm54.68-14.15l-28.91,28.91v-74.89h-74.46l28.91-28.91h74.46v74.89Z"/>
    </g>
  </g>
</svg>